<svg width="758" height="546" viewBox="0 0 758 546" fill="none" xmlns="http://www.w3.org/2000/svg">
<path d="M12 280.121H240.036C240.78 280.121 241.462 279.709 241.807 279.05L299.632 168.796C300.428 167.279 302.638 167.399 303.265 168.994L381.743 368.68C382.435 370.441 384.959 370.346 385.516 368.538L458.985 129.973C459.558 128.112 462.181 128.084 462.794 129.931L505.532 258.596C506.042 260.131 508.069 260.458 509.034 259.16L542.549 214.141C543.41 212.984 545.175 213.091 545.89 214.343L576.597 268.109C576.953 268.732 577.616 269.117 578.334 269.117H746" stroke="#DE2929" stroke-width="24" stroke-linecap="round"/>
<path d="M386.817 532.99C904.202 194.232 624.384 -116.031 386.999 67.0659C386.26 67.6361 385.159 67.6236 384.433 67.0368C154.528 -118.751 -143.784 198.37 384.58 533.007C385.241 533.426 386.162 533.419 386.817 532.99Z" stroke="#DE2929" stroke-width="24"/>
</svg>
